<svg width="18" height="19" viewBox="0 0 18 19" fill="none" xmlns="http://www.w3.org/2000/svg">
<circle cx="9" cy="9.5" r="9" fill="white"/>
<path d="M12.1416 13.0999C11.9512 13.1015 11.7636 13.0541 11.5973 12.9625L8.31059 11.089C8.15365 10.9948 8.02413 10.862 7.93466 10.7037C7.84519 10.5454 7.79882 10.3669 7.80007 10.1856V3.94071C7.80007 3.66467 7.9112 3.39994 8.10902 3.20475C8.30683 3.00956 8.57512 2.8999 8.85487 2.8999C9.13462 2.8999 9.40291 3.00956 9.60072 3.20475C9.79854 3.39994 9.90967 3.66467 9.90967 3.94071V9.58608L12.669 11.1556C12.8711 11.2697 13.0293 11.4466 13.1189 11.6587C13.2085 11.8708 13.2244 12.1062 13.1642 12.3282C13.104 12.5501 12.971 12.7462 12.786 12.8858C12.6011 13.0254 12.3745 13.1007 12.1416 13.0999Z" fill="#121212"/>
</svg>
