<svg width="19" height="21" viewBox="0 0 19 21" fill="none" xmlns="http://www.w3.org/2000/svg">
<path d="M7.29497 10.0443C7.29014 9.94009 7.30666 9.83601 7.34352 9.73834C7.38038 9.64066 7.43683 9.55142 7.50945 9.476C7.58206 9.40057 7.66934 9.34054 7.76601 9.29953C7.86267 9.25851 7.96672 9.23736 8.07185 9.23736C8.17699 9.23736 8.28103 9.25851 8.3777 9.29953C8.47437 9.34054 8.56164 9.40057 8.63426 9.476C8.70688 9.55142 8.76332 9.64066 8.80019 9.73834C8.83705 9.83601 8.85357 9.94009 8.84874 10.0443V15.7539C8.85357 15.8581 8.83705 15.9622 8.80019 16.0598C8.76332 16.1575 8.70688 16.2468 8.63426 16.3222C8.56164 16.3976 8.47437 16.4576 8.3777 16.4987C8.28103 16.5397 8.17699 16.5608 8.07185 16.5608C7.96672 16.5608 7.86267 16.5397 7.76601 16.4987C7.66934 16.4576 7.58206 16.3976 7.50945 16.3222C7.43683 16.2468 7.38038 16.1575 7.34352 16.0598C7.30666 15.9622 7.29014 15.8581 7.29497 15.7539V10.0443ZM17.73 6.81185L16.931 17.2643C16.8718 18.1277 16.5034 18.9416 15.8924 19.5592C15.595 19.8584 15.2403 20.0957 14.8493 20.2573C14.4583 20.4188 14.0387 20.5013 13.6151 20.5H6.23177C5.80872 20.501 5.38972 20.4183 4.99926 20.2568C4.6088 20.0952 4.25472 19.8581 3.95771 19.5592C3.34633 18.9417 2.97743 18.1278 2.91749 17.2643L2.12173 6.81185H0.851807V4.56901C0.851807 4.02865 1.11925 3.82357 1.64592 3.82357H5.37695V2.25619C5.37825 1.79081 5.56518 1.34487 5.89691 1.0158C6.22863 0.686728 6.67817 0.501289 7.1473 0.5H12.7045C13.1727 0.502574 13.621 0.688581 13.9517 1.01751C14.2823 1.34644 14.4686 1.79165 14.4699 2.25619V3.82194H18.301C18.3559 3.82079 18.4107 3.82406 18.4651 3.83171C18.606 3.85406 18.7351 3.92297 18.8316 4.02725C18.9281 4.13153 18.9863 4.26508 18.9967 4.40625C18.9967 4.4388 18.9967 4.4681 18.9967 4.49902V6.81185H17.73ZM16.1713 6.83952H3.68043L4.46142 17.1504C4.49269 17.6449 4.70032 18.1122 5.04716 18.4688C5.20086 18.6243 5.38446 18.7477 5.5871 18.8315C5.78974 18.9154 6.00728 18.9581 6.22685 18.957H13.6101C13.8296 18.9575 14.047 18.9146 14.2496 18.8308C14.4521 18.7469 14.6358 18.6239 14.7898 18.4688C15.1381 18.1129 15.347 17.6454 15.3789 17.1504L16.1713 6.84766V6.83952ZM12.501 3.82194V2.46126H7.35567V3.82194H12.501ZM11.003 10.0443C10.9982 9.94009 11.0147 9.83601 11.0516 9.73834C11.0884 9.64066 11.1449 9.55142 11.2175 9.476C11.2901 9.40057 11.3774 9.34054 11.4741 9.29953C11.5707 9.25851 11.6748 9.23736 11.7799 9.23736C11.885 9.23736 11.9891 9.25851 12.0858 9.29953C12.1824 9.34054 12.2697 9.40057 12.3423 9.476C12.4149 9.55142 12.4714 9.64066 12.5082 9.73834C12.5451 9.83601 12.5616 9.94009 12.5568 10.0443V15.7539C12.5616 15.8581 12.5451 15.9622 12.5082 16.0598C12.4714 16.1575 12.4149 16.2468 12.3423 16.3222C12.2697 16.3976 12.1824 16.4576 12.0858 16.4987C11.9891 16.5397 11.885 16.5608 11.7799 16.5608C11.6748 16.5608 11.5707 16.5397 11.4741 16.4987C11.3774 16.4576 11.2901 16.3976 11.2175 16.3222C11.1449 16.2468 11.0884 16.1575 11.0516 16.0598C11.0147 15.9622 10.9982 15.8581 11.003 15.7539V10.0443Z" fill="#902828"/>
</svg>
